<svg xmlns="http://www.w3.org/2000/svg" width="1148" height="211" viewBox="0 0 1148 211"><rect width="1148" height="211" fill="white"/><g transform="translate(14.0,87.6)"><line x1="109.3" y1="54.8" x2="128.0" y2="54.8" stroke="black" stroke-width="3" stroke-linecap="round"/><line x1="199.0" y1="54.8" x2="217.2" y2="54.8" stroke="black" stroke-width="3" stroke-linecap="round"/><text x="54.8" y="66.7" font-family="Arial" font-size="34" text-anchor="middle">C</text><text x="67.3" y="66.7" font-family="Arial" font-size="34" text-anchor="start">H</text><text x="92.3" y="75.7" font-family="Arial" font-size="23" text-anchor="start">3</text><text x="144.5" y="66.7" font-family="Arial" font-size="34" text-anchor="middle">C</text><text x="157.0" y="66.7" font-family="Arial" font-size="34" text-anchor="start">H</text><text x="182.0" y="75.7" font-family="Arial" font-size="23" text-anchor="start">2</text><text x="234.2" y="66.7" font-family="Arial" font-size="34" text-anchor="middle">O</text><text x="247.2" y="66.7" font-family="Arial" font-size="34" text-anchor="start">H</text></g><g transform="translate(338.0,118.9)"><text x="6.0" y="35.4" font-family="Arial" font-size="34" text-anchor="start">+</text></g><g transform="translate(380.0,118.9)"><text x="6.0" y="35.4" font-family="Arial" font-size="34" text-anchor="start">2[O]</text></g><g transform="translate(465.0,99.4)"><text x="14.0" y="26.6" font-family="Arial" font-size="26" text-anchor="start">K</text><text x="32.0" y="32.8" font-family="Arial" font-size="17" text-anchor="start">2</text><text x="41.0" y="26.6" font-family="Arial" font-size="26" text-anchor="start">Cr</text><text x="70.0" y="32.8" font-family="Arial" font-size="17" text-anchor="start">2</text><text x="79.0" y="26.6" font-family="Arial" font-size="26" text-anchor="start">O</text><text x="99.0" y="32.8" font-family="Arial" font-size="17" text-anchor="start">7</text><text x="108.0" y="26.6" font-family="Arial" font-size="26" text-anchor="start"> / H</text><text x="148.0" y="32.8" font-family="Arial" font-size="17" text-anchor="start">2</text><text x="157.0" y="26.6" font-family="Arial" font-size="26" text-anchor="start">SO</text><text x="194.0" y="32.8" font-family="Arial" font-size="17" text-anchor="start">4</text><text x="77.0" y="77.6" font-family="Arial" font-size="26" text-anchor="start">reflux</text><line x1="3.0" y1="43.0" x2="214.0" y2="43.0" stroke="black" stroke-width="3" stroke-linecap="round"/><path d="M 214.0 43.0 L 202.0 37.5 L 202.0 48.5 Z" fill="black"/></g><g transform="translate(692.0,14.0)"><line x1="109.3" y1="128.4" x2="128.0" y2="128.4" stroke="black" stroke-width="3" stroke-linecap="round"/><line x1="138.5" y1="111.9" x2="138.5" y2="71.3" stroke="black" stroke-width="3" stroke-linecap="round"/><line x1="150.5" y1="111.9" x2="150.5" y2="71.3" stroke="black" stroke-width="3" stroke-linecap="round"/><line x1="161.0" y1="128.4" x2="217.2" y2="128.4" stroke="black" stroke-width="3" stroke-linecap="round"/><text x="54.8" y="140.3" font-family="Arial" font-size="34" text-anchor="middle">C</text><text x="67.3" y="140.3" font-family="Arial" font-size="34" text-anchor="start">H</text><text x="92.3" y="149.3" font-family="Arial" font-size="23" text-anchor="start">3</text><text x="144.5" y="140.3" font-family="Arial" font-size="34" text-anchor="middle">C</text><text x="234.2" y="140.3" font-family="Arial" font-size="34" text-anchor="middle">O</text><text x="247.2" y="140.3" font-family="Arial" font-size="34" text-anchor="start">H</text><text x="144.5" y="66.7" font-family="Arial" font-size="34" text-anchor="middle">O</text></g><g transform="translate(1016.0,118.9)"><text x="6.0" y="35.4" font-family="Arial" font-size="34" text-anchor="start">+</text></g><g transform="translate(1058.0,118.9)"><text x="6.0" y="35.4" font-family="Arial" font-size="34" text-anchor="start">H</text><text x="31.0" y="43.6" font-family="Arial" font-size="23" text-anchor="start">2</text><text x="44.0" y="35.4" font-family="Arial" font-size="34" text-anchor="start">O</text></g></svg>